# xmcd
#
# Track frame offsets:
#	150
#	15708
#	38940
#	50918
#	67890
#	80555
#	93288
#	105725
#	136753
#	152465
#	173805
#	186848
#	212478
#	221450
#	236630
#	255575
#	270800
#	285830
#
# Disc length: 4077
#
# Revision: 1
# Processed by: cddbd v1.5.1PL0 Copyright (c) Steve Scherf et al.
# Submitted via: CDex 1.50beta10
# Normalized: r0:DSETVAR1
#
DISCID=ea0feb12
DTITLE=Various Artist - Nederblues
DYEAR=2002
DGENRE=Blues
TTITLE0=Cuby and Blizzards - Window of My Eyes
TTITLE1=Livin' Blues - Wang Dang Doodle
TTITLE2=Bintangs - Ridin' on the L&N
TTITLE3=Flavium - Nightlife
TTITLE4=Rob Hoeke Rhythm and Blues Group - Margio
TTITLE5=Q'65 - Ann
TTITLE6=Oscar Benton Blues Band - I Can't Quit You
TTITLE7=Cuby and Blizzards - Somebody Will Know Someday
TTITLE8=Q'65 - Spoonful
TTITLE9=Livin' Blues - When the Sun Goes Down
TTITLE10=Bintangs - Travellin' in the USA
TTITLE11=John the Revelator - Worried Dreams
TTITLE12=Indiscrimination - Wishful Thinking
TTITLE13=Cuby and Blizzards - Thursday Night
TTITLE14=Livin' Blues - L. B. Blues
TTITLE15=Rob Hoeke Rhythm and Blues Group - Drinkin' on my Bed
TTITLE16=Q'65 - The Life I Live
TTITLE17=Flavium - Nobody Knows You When You Are Down And Out
EXTD=YEAR: 2002
EXTT0=
EXTT1=
EXTT2=
EXTT3=
EXTT4=
EXTT5=
EXTT6=
EXTT7=
EXTT8=
EXTT9=
EXTT10=
EXTT11=
EXTT12=
EXTT13=
EXTT14=
EXTT15=
EXTT16=
EXTT17=
PLAYORDER=
